<?xml version="1.0" standalone="no"?>
<!DOCTYPE svg PUBLIC "-//W3C//DTD SVG 20010904//EN"
 "http://www.w3.org/TR/2001/REC-SVG-20010904/DTD/svg10.dtd">
<svg version="1.0" xmlns="http://www.w3.org/2000/svg"
 width="880.000000pt" height="1046.000000pt" viewBox="0 0 880.000000 1046.000000"
 preserveAspectRatio="xMidYMid meet">

<g transform="translate(0.000000,1046.000000) scale(0.100000,-0.100000)"
fill="#000000" stroke="none">
<path d="M2595 10030 c-77 -10 -189 -24 -250 -30 -75 -9 -145 -24 -220 -50
-60 -20 -132 -43 -160 -50 -66 -18 -155 -102 -155 -146 0 -16 -7 -108 -15
-204 -8 -96 -20 -260 -25 -365 -12 -226 -24 -411 -45 -675 -8 -107 -21 -287
-29 -400 -9 -113 -18 -227 -20 -255 -3 -27 -8 -113 -11 -190 -6 -151 -22 -355
-28 -361 -5 -5 -246 26 -267 34 -8 3 -18 5 -21 4 -4 -1 -33 3 -65 9 -33 5
-135 18 -229 29 -198 23 -358 45 -434 59 -143 28 -201 7 -201 -74 0 -40 5 -46
170 -210 149 -149 180 -174 257 -215 48 -25 111 -60 138 -76 45 -28 104 -49
205 -74 152 -38 429 -113 650 -175 52 -15 124 -33 160 -41 36 -8 104 -25 152
-39 48 -14 98 -25 112 -25 14 0 28 -5 31 -10 4 -6 10 -8 15 -5 4 3 45 -2 91
-9 46 -8 122 -19 169 -25 47 -6 123 -18 170 -26 234 -42 396 -59 660 -70 80
-3 204 -11 277 -16 94 -8 156 -8 215 0 46 6 198 15 338 21 328 13 702 37 849
55 176 21 370 43 536 60 83 9 245 31 360 50 116 19 233 37 260 40 28 3 120 21
205 40 155 34 198 42 365 69 50 8 151 27 225 41 74 15 149 28 165 30 95 11
427 76 495 96 36 10 70 19 76 19 50 0 328 120 384 166 14 11 45 32 70 46 69
40 153 106 167 131 25 45 16 83 -27 120 -43 36 -44 37 -270 53 -36 3 -119 12
-185 20 -168 20 -192 22 -450 43 -126 11 -241 23 -255 29 -14 5 -54 18 -90 27
-84 22 -141 42 -161 58 -12 9 -20 66 -38 247 -13 129 -31 309 -42 400 -10 91
-25 257 -34 370 -9 113 -22 261 -30 330 -15 139 -64 631 -71 726 -7 81 -55
161 -121 199 -54 32 -247 75 -338 75 -33 0 -125 7 -205 15 -238 25 -1203 76
-1525 81 -165 2 -480 9 -700 14 -220 5 -553 12 -740 16 -187 3 -347 7 -355 9
-8 1 -78 -6 -155 -15z"/>
<path d="M2106 6273 l-358 -3 7 -78 c4 -42 9 -90 11 -107 1 -16 9 -70 18 -120
8 -49 22 -133 30 -185 9 -52 20 -115 26 -140 5 -25 16 -90 24 -145 8 -55 26
-131 39 -170 77 -213 75 -210 160 -325 28 -37 145 -130 164 -130 4 0 56 -24
117 -54 182 -88 186 -89 781 -83 312 3 529 9 560 16 107 23 205 84 254 158 40
59 81 200 106 361 9 57 20 114 26 128 5 14 18 65 28 112 37 167 87 259 158
288 57 24 115 -12 161 -101 24 -47 68 -183 77 -240 4 -22 11 -53 15 -70 5 -16
11 -46 14 -65 26 -183 71 -344 113 -412 30 -49 114 -110 186 -137 91 -33 256
-43 727 -42 473 1 496 3 640 63 139 58 340 187 340 217 0 5 20 39 45 77 25 38
50 87 56 109 6 22 26 85 44 140 33 97 42 142 66 310 13 91 16 111 59 365 17
102 30 201 28 220 l-3 35 -410 6 c-398 6 -3584 7 -4309 2z"/>
<path d="M4208 3873 c-34 -4 -38 -7 -38 -31 0 -19 -8 -32 -26 -43 -25 -16 -29
-15 -61 7 -18 12 -42 32 -51 44 l-18 22 -44 -21 c-24 -11 -57 -21 -73 -21 -28
0 -130 -51 -142 -71 -8 -12 -86 -12 -105 1 -11 7 -22 2 -42 -17 -16 -15 -49
-38 -76 -52 -26 -15 -46 -30 -44 -35 4 -10 -62 -56 -82 -56 -8 0 -17 -4 -21
-9 -6 -10 -57 13 -83 37 -16 15 -16 15 -66 -51 -41 -55 -47 -87 -16 -87 11 0
20 -3 20 -6 0 -12 -35 -33 -55 -34 -23 -1 -112 -133 -157 -234 -33 -74 -34
-115 -6 -226 16 -62 23 -125 25 -231 4 -139 3 -150 -27 -250 -39 -132 -53
-303 -26 -343 11 -18 16 -48 16 -102 0 -70 3 -83 36 -143 20 -36 62 -91 93
-122 31 -31 69 -70 84 -87 15 -17 44 -39 65 -49 20 -10 65 -45 98 -78 56 -55
106 -86 229 -141 116 -52 276 -110 340 -124 22 -4 82 -18 134 -29 81 -18 128
-21 320 -21 299 0 378 10 495 64 95 43 165 81 230 125 75 50 162 101 241 141
44 21 103 57 130 80 28 22 64 48 80 58 40 23 125 109 153 156 12 21 29 61 38
89 9 29 21 63 27 77 6 14 14 59 18 100 5 41 11 104 15 139 7 64 -3 140 -32
268 -12 49 -13 74 -4 115 29 144 46 438 29 518 -5 25 -37 107 -71 183 -55 123
-68 143 -124 198 -59 55 -66 60 -97 54 -27 -5 -43 -1 -76 19 -52 33 -127 61
-191 72 -8 2 -36 11 -62 21 l-47 18 -29 -28 -30 -28 -37 20 c-20 11 -46 29
-57 41 -12 12 -27 19 -35 15 -9 -3 -24 2 -34 11 -22 20 -149 35 -172 20 -11
-7 -28 -4 -60 12 -59 29 -99 28 -133 -3 -26 -24 -64 -34 -64 -16 0 29 -213 74
-302 64z m-300 -715 c6 -6 46 -13 89 -14 79 -3 121 -16 196 -62 34 -22 40 -23
60 -9 12 8 35 15 50 15 15 0 36 7 46 16 11 10 22 13 25 8 10 -16 95 -25 111
-12 15 13 67 5 96 -13 22 -13 92 16 125 52 18 19 32 24 71 24 53 0 120 -8 202
-23 30 -5 57 -7 60 -5 2 3 9 0 16 -5 6 -5 41 -11 76 -14 73 -4 122 -22 161
-59 22 -21 27 -32 22 -55 -4 -21 1 -42 19 -73 13 -24 39 -86 57 -136 l32 -93
-17 -68 c-16 -66 -21 -73 -105 -158 -67 -68 -106 -98 -159 -124 l-71 -34 -26
20 c-14 10 -36 44 -48 74 -62 150 -115 256 -154 308 -33 44 -211 162 -243 162
-14 0 -30 -5 -36 -11 -8 -8 -28 1 -72 32 -51 36 -70 43 -121 47 -46 3 -66 0
-87 -14 -16 -10 -43 -17 -61 -16 -19 2 -48 -6 -65 -16 -18 -10 -59 -29 -92
-42 -33 -13 -76 -37 -96 -54 -20 -17 -49 -41 -63 -53 -15 -12 -26 -32 -26 -46
0 -30 -26 -96 -48 -120 -29 -32 -62 -217 -44 -240 8 -10 6 -16 -8 -25 -27 -17
-85 15 -86 48 -2 32 -51 71 -154 122 -47 23 -91 50 -99 61 -10 14 -23 18 -55
16 l-41 -3 3 89 c3 86 30 223 55 275 6 14 28 45 48 70 20 25 42 55 48 67 13
26 81 48 124 39 16 -3 38 -1 50 6 11 6 37 12 57 13 73 6 130 18 141 31 14 17
22 17 37 2z"/>
</g>
</svg>
